<svg width="92" height="92" viewBox="0 0 92 92" fill="none" xmlns="http://www.w3.org/2000/svg">
<circle cx="46" cy="46" r="46" fill="#C20F24"/>
<path d="M23 43C21.3431 43 20 44.3431 20 46C20 47.6569 21.3431 49 23 49V43ZM71.1213 48.1213C72.2929 46.9497 72.2929 45.0503 71.1213 43.8787L52.0294 24.7868C50.8579 23.6152 48.9584 23.6152 47.7868 24.7868C46.6152 25.9584 46.6152 27.8579 47.7868 29.0294L64.7574 46L47.7868 62.9706C46.6152 64.1421 46.6152 66.0416 47.7868 67.2132C48.9584 68.3848 50.8579 68.3848 52.0294 67.2132L71.1213 48.1213ZM23 49H69V43H23V49Z" fill="white"/>
<path d="M23 43C21.3431 43 20 44.3431 20 46C20 47.6569 21.3431 49 23 49V43ZM71.1213 48.1213C72.2929 46.9497 72.2929 45.0503 71.1213 43.8787L52.0294 24.7868C50.8579 23.6152 48.9584 23.6152 47.7868 24.7868C46.6152 25.9584 46.6152 27.8579 47.7868 29.0294L64.7574 46L47.7868 62.9706C46.6152 64.1421 46.6152 66.0416 47.7868 67.2132C48.9584 68.3848 50.8579 68.3848 52.0294 67.2132L71.1213 48.1213ZM23 49H69V43H23V49Z" fill="#696969" fill-opacity="0.2"/>
</svg>
