<svg width="150" height="44" viewBox="0 0 150 44" fill="none" xmlns="http://www.w3.org/2000/svg">
<g clip-path="url(#clip0_81_159)">
<g clip-path="url(#clip1_81_159)">
<g clip-path="url(#clip2_81_159)">
<g clip-path="url(#clip3_81_159)">
<g clip-path="url(#clip4_81_159)">
<g clip-path="url(#clip5_81_159)">
<g clip-path="url(#clip6_81_159)">
<g clip-path="url(#clip7_81_159)">
<path d="M47.2983 33.592L43.111 15.3621L41.6822 33.592H38.564L41.6822 9.14637H46.3023L50.5939 27.8004L54.9375 9.14637H59.5576L62.1544 33.592H57.0129L55.4955 15.8349L51.9183 33.592H47.2983ZM68.4014 24.2893C68.9298 24.4469 69.4565 24.5721 69.9814 24.6648C70.5098 24.7528 71.04 24.7969 71.5719 24.7969C72.135 24.7969 72.6547 24.7274 73.131 24.5883C73.6107 24.4446 74.0279 24.2059 74.3825 23.8722C74.7336 23.5384 75.0117 23.0958 75.2168 22.5442C75.4184 21.988 75.5192 21.2974 75.5192 20.4723C75.5192 19.8048 75.4515 19.193 75.3159 18.6368C75.1803 18.0806 74.9787 17.6055 74.711 17.2115C74.4433 16.8175 74.1148 16.5093 73.7254 16.2868C73.3361 16.0643 72.8824 15.9531 72.3645 15.9531C71.8812 15.9531 71.445 16.0736 71.0556 16.3146C70.6697 16.551 70.3308 16.8708 70.0388 17.2741C69.7468 17.6727 69.4965 18.1385 69.2879 18.6716C69.0793 19.2046 68.9072 19.7585 68.7717 20.3333C68.6361 20.9126 68.5387 21.4967 68.4796 22.0853C68.4205 22.674 68.391 23.2279 68.391 23.747C68.391 23.8397 68.391 23.9301 68.391 24.0182C68.391 24.1109 68.3945 24.2013 68.4014 24.2893ZM79.0078 20.4167C79.0078 21.2232 78.9104 21.9393 78.7157 22.5651C78.5211 23.1954 78.2551 23.747 77.9179 24.2198C77.5842 24.6972 77.1966 25.1005 76.7551 25.4296C76.3136 25.754 75.8425 26.0229 75.342 26.2361C74.8414 26.4447 74.3251 26.593 73.7932 26.6811C73.2648 26.7738 72.7503 26.8201 72.2497 26.8201C71.6136 26.8201 70.9844 26.7599 70.3621 26.6393C69.7433 26.5235 69.1332 26.3334 68.5318 26.0692C68.6257 26.8201 68.7734 27.5316 68.975 28.2037C69.1801 28.8758 69.453 29.4645 69.7937 29.9697C70.1309 30.4703 70.5481 30.8689 71.0452 31.1655C71.5423 31.4576 72.1298 31.6036 72.8077 31.6036C73.2596 31.6036 73.689 31.5132 74.0957 31.3324C74.5024 31.1516 74.8761 30.8967 75.2168 30.5676C75.554 30.2432 75.853 29.8538 76.1137 29.3996C76.3709 28.9453 76.5813 28.4424 76.7447 27.8908L78.601 28.8086C78.3194 29.6985 77.9353 30.4703 77.4486 31.1238C76.9619 31.7727 76.4109 32.3104 75.7956 32.7369C75.1803 33.1586 74.5268 33.4715 73.835 33.6755C73.1432 33.8794 72.4566 33.9814 71.7752 33.9814C70.6558 33.9814 69.6216 33.7311 68.6726 33.2305C67.7201 32.7253 66.9014 32.0207 66.2165 31.1169C65.5282 30.2084 64.9877 29.1261 64.5948 27.87C64.2055 26.6139 64.0108 25.2395 64.0108 23.747C64.0108 22.2545 64.2055 20.8802 64.5948 19.6241C64.9877 18.368 65.5282 17.2857 66.2165 16.3772C66.9014 15.4733 67.7201 14.7688 68.6726 14.2636C69.6216 13.763 70.6558 13.5127 71.7752 13.5127C72.321 13.5127 72.8772 13.5637 73.4439 13.6656C74.014 13.7676 74.5667 13.9275 75.1021 14.1454C75.634 14.3678 76.138 14.6552 76.6143 15.0075C77.0906 15.3551 77.5042 15.7862 77.8554 16.3007C78.2099 16.8198 78.4898 17.4178 78.6949 18.0945C78.9035 18.7712 79.0078 19.5453 79.0078 20.4167ZM86.2142 9.25067C86.2142 9.68173 86.1516 10.0896 86.0265 10.4743C85.9048 10.8591 85.738 11.1928 85.5259 11.4755C85.3138 11.7583 85.0635 11.9808 84.775 12.143C84.4865 12.3098 84.1806 12.3933 83.8573 12.3933C83.534 12.3933 83.2315 12.3098 82.9499 12.143C82.6649 11.9808 82.4163 11.7583 82.2043 11.4755C81.9922 11.1928 81.8236 10.8591 81.6984 10.4743C81.5768 10.0896 81.5159 9.68173 81.5159 9.25067C81.5159 8.8196 81.5768 8.41403 81.6984 8.03394C81.8236 7.6585 81.9922 7.3294 82.2043 7.04666C82.4163 6.76392 82.6649 6.53911 82.9499 6.37225C83.2315 6.21002 83.534 6.12891 83.8573 6.12891C84.1806 6.12891 84.4865 6.21002 84.775 6.37225C85.0635 6.53911 85.3138 6.76392 85.5259 7.04666C85.738 7.3294 85.9048 7.6585 86.0265 8.03394C86.1516 8.41403 86.2142 8.8196 86.2142 9.25067ZM86.0213 14.0063V33.592H81.7037V14.0063H86.0213ZM106.556 15.2091L104.376 16.4328C104.21 15.6958 103.984 15.0214 103.698 14.4096C103.413 13.7977 103.073 13.274 102.676 12.8383C102.284 12.4026 101.837 12.0642 101.336 11.8232C100.836 11.5775 100.288 11.4547 99.6937 11.4547C99.0576 11.4547 98.4735 11.5937 97.9417 11.8718C97.4133 12.1499 96.9387 12.5323 96.5181 13.019C96.0975 13.5057 95.7307 14.0712 95.4178 14.7155C95.1015 15.3598 94.8373 16.0481 94.6252 16.7804C94.4132 17.5081 94.2567 18.2637 94.1559 19.047C94.0551 19.8257 94.0047 20.5882 94.0047 21.3344C94.0047 22.5257 94.1073 23.7099 94.3124 24.8873C94.5209 26.06 94.8529 27.1168 95.3083 28.0577C95.7603 28.9986 96.3478 29.7588 97.0708 30.3382C97.7939 30.9222 98.6682 31.2142 99.6937 31.2142C100.236 31.2142 100.749 31.0937 101.232 30.8527C101.719 30.607 102.158 30.2733 102.551 29.8515C102.948 29.4251 103.293 28.9245 103.589 28.3497C103.884 27.7703 104.123 27.1469 104.303 26.4794L106.504 27.6544C106.181 28.7251 105.739 29.6661 105.179 30.4772C104.62 31.2884 103.982 31.9582 103.266 32.4866C102.546 33.0196 101.778 33.4182 100.961 33.6824C100.14 33.9513 99.3148 34.0857 98.484 34.0857C97.5836 34.0857 96.7197 33.9374 95.8924 33.6407C95.065 33.3487 94.295 32.9315 93.5823 32.3892C92.8697 31.8423 92.2231 31.1841 91.6425 30.4147C91.062 29.6452 90.5649 28.7924 90.1512 27.8561C89.741 26.9151 89.4229 25.8931 89.1969 24.7899C88.971 23.6868 88.858 22.5349 88.858 21.3344C88.858 20.1386 88.971 18.9867 89.1969 17.879C89.4229 16.7758 89.741 15.7537 90.1512 14.8128C90.5649 13.8673 91.062 13.0098 91.6425 12.2403C92.2231 11.4709 92.8697 10.815 93.5823 10.2727C94.295 9.72576 95.065 9.30629 95.8924 9.01427C96.7197 8.71763 97.5836 8.5693 98.484 8.5693C99.3496 8.5693 100.196 8.70604 101.023 8.97951C101.851 9.25298 102.621 9.66319 103.333 10.2101C104.046 10.7571 104.681 11.4477 105.237 12.282C105.793 13.1117 106.233 14.0874 106.556 15.2091ZM124.265 22.3565C124.265 23.6775 124.143 25.0564 123.9 26.4933C123.656 27.9349 123.319 29.3439 122.888 30.7206C122.453 32.1018 121.935 33.402 121.334 34.621C120.733 35.8354 120.07 36.8853 119.347 37.7706L117.731 36.5956C117.96 36.0301 118.177 35.3974 118.383 34.6975C118.584 33.993 118.768 33.249 118.935 32.4657C119.099 31.6777 119.246 30.8643 119.379 30.0253C119.511 29.191 119.622 28.3636 119.712 27.5432C119.799 26.7228 119.867 25.9232 119.916 25.1445C119.961 24.3704 119.983 23.6497 119.983 22.9822C119.983 22.5419 119.971 22.0691 119.947 21.5639C119.923 21.0633 119.869 20.5604 119.785 20.0551C119.705 19.5499 119.598 19.0655 119.462 18.602C119.326 18.1385 119.146 17.7306 118.92 17.3784C118.697 17.0307 118.426 16.748 118.106 16.5301C117.79 16.3169 117.414 16.2103 116.98 16.2103C116.556 16.2103 116.179 16.3378 115.848 16.5927C115.518 16.8476 115.224 17.1814 114.967 17.5939C114.713 18.0064 114.496 18.4792 114.315 19.0122C114.131 19.5453 113.982 20.0899 113.867 20.6461C113.752 21.207 113.67 21.7586 113.622 22.3009C113.57 22.8478 113.543 23.3345 113.543 23.7609V33.592H109.226V6.77551H113.528V16.8708C114.081 15.7955 114.758 14.9681 115.562 14.3887C116.365 13.8047 117.253 13.5127 118.226 13.5127C119.245 13.5127 120.133 13.7328 120.891 14.1732C121.645 14.6135 122.273 15.2277 122.773 16.0156C123.274 16.8036 123.647 17.7376 123.894 18.8176C124.141 19.8976 124.265 21.0772 124.265 22.3565ZM131.617 9.25067C131.617 9.68173 131.556 10.0896 131.434 10.4743C131.313 10.8591 131.146 11.1928 130.934 11.4755C130.722 11.7583 130.472 11.9808 130.183 12.143C129.894 12.3098 129.589 12.3933 129.265 12.3933C128.942 12.3933 128.638 12.3098 128.353 12.143C128.068 11.9808 127.819 11.7583 127.607 11.4755C127.395 11.1928 127.228 10.8591 127.106 10.4743C126.985 10.0896 126.924 9.68173 126.924 9.25067C126.924 8.8196 126.985 8.41403 127.106 8.03394C127.228 7.6585 127.395 7.3294 127.607 7.04666C127.819 6.76392 128.068 6.53911 128.353 6.37225C128.638 6.21002 128.942 6.12891 129.265 6.12891C129.589 6.12891 129.894 6.21002 130.183 6.37225C130.472 6.53911 130.722 6.76392 130.934 7.04666C131.146 7.3294 131.313 7.6585 131.434 8.03394C131.556 8.41403 131.617 8.8196 131.617 9.25067ZM131.429 14.0063V33.592H127.112V14.0063H131.429ZM149.837 13.9854V33.592H145.535V31.249C145.024 32.176 144.41 32.8643 143.694 33.3139C142.978 33.7589 142.19 33.9814 141.332 33.9814C140.212 33.9814 139.211 33.7149 138.328 33.1818C137.445 32.6534 136.698 31.928 136.086 31.0056C135.474 30.0832 135.008 28.9986 134.688 27.7518C134.365 26.5096 134.203 25.1746 134.203 23.747C134.203 22.3194 134.365 20.9845 134.688 19.7423C135.008 18.4954 135.474 17.4108 136.086 16.4884C136.698 15.566 137.445 14.8406 138.328 14.3122C139.211 13.7792 140.212 13.5127 141.332 13.5127C141.902 13.5127 142.442 13.6262 142.953 13.8533C143.468 14.0758 143.939 14.3957 144.367 14.8128C144.798 15.2253 145.176 15.7213 145.503 16.3007C145.83 16.8847 146.086 17.5336 146.27 18.2474L148.184 13.9854H149.837ZM145.508 23.747C145.508 23.2372 145.489 22.6995 145.451 22.134C145.413 21.5685 145.347 21.0077 145.253 20.4514C145.159 19.8999 145.03 19.3715 144.867 18.8662C144.7 18.361 144.486 17.9137 144.226 17.5244C143.968 17.135 143.657 16.8268 143.292 16.5997C142.927 16.3725 142.503 16.259 142.02 16.259C141.537 16.259 141.116 16.3749 140.758 16.6066C140.403 16.8384 140.098 17.1512 139.84 17.5452C139.587 17.9346 139.378 18.3842 139.215 18.894C139.048 19.4039 138.917 19.9346 138.823 20.4862C138.73 21.0424 138.664 21.601 138.625 22.1618C138.587 22.7227 138.568 23.2511 138.568 23.747C138.568 24.243 138.587 24.7737 138.625 25.3392C138.664 25.9093 138.73 26.4702 138.823 27.0217C138.917 27.578 139.048 28.111 139.215 28.6209C139.378 29.1307 139.587 29.5803 139.84 29.9697C140.098 30.359 140.403 30.6696 140.758 30.9013C141.116 31.1331 141.537 31.249 142.02 31.249C142.461 31.249 142.854 31.1285 143.198 30.8874C143.543 30.6418 143.843 30.315 144.101 29.9071C144.358 29.4992 144.577 29.0357 144.758 28.5166C144.935 27.9974 145.079 27.4598 145.19 26.9035C145.302 26.3473 145.382 25.7958 145.43 25.2488C145.482 24.7019 145.508 24.2013 145.508 23.747Z" fill="#3C2C32"/>
</g>
</g>
</g>
</g>
<g clip-path="url(#clip8_81_159)">
<g clip-path="url(#clip9_81_159)">
<path d="M32.272 43.8143H0.841954C0.660742 43.8143 0.486951 43.7183 0.358814 43.5474C0.230678 43.3766 0.158691 43.1449 0.158691 42.9032V0.996466C0.158691 0.754849 0.230678 0.523129 0.358814 0.35228C0.486951 0.181431 0.660742 0.0854492 0.841954 0.0854492L32.272 0.0854492C32.4532 0.0854492 32.627 0.181431 32.7552 0.35228C32.8833 0.523129 32.9553 0.754849 32.9553 0.996466V42.9032C32.9553 43.1449 32.8833 43.3766 32.7552 43.5474C32.627 43.7183 32.4532 43.8143 32.272 43.8143ZM1.52522 41.9922H31.5888V1.90748H1.52522V41.9922Z" fill="#91553D"/>
<path d="M16.557 38.3484C9.77565 38.3484 4.2583 30.9919 4.2583 21.9501C4.2583 12.9082 9.77565 5.55176 16.557 5.55176C23.3384 5.55176 28.8558 12.9082 28.8558 21.9501C28.8558 30.9919 23.3384 38.3484 16.557 38.3484ZM16.557 7.37379C10.5293 7.37379 5.62483 13.9131 5.62483 21.9501C5.62483 29.9871 10.5293 36.5263 16.557 36.5263C22.5848 36.5263 27.4892 29.9871 27.4892 21.9501C27.4892 13.9131 22.5848 7.37379 16.557 7.37379Z" fill="#91553D"/>
<path d="M16.557 23.772C17.3117 23.772 17.9235 22.9562 17.9235 21.95C17.9235 20.9437 17.3117 20.1279 16.557 20.1279C15.8022 20.1279 15.1904 20.9437 15.1904 21.95C15.1904 22.9562 15.8022 23.772 16.557 23.772Z" fill="#91553D"/>
</g>
</g>
</g>
</g>
</g>
</g>
<defs>
<clipPath id="clip0_81_159">
<rect width="150" height="43.9" fill="white"/>
</clipPath>
<clipPath id="clip1_81_159">
<rect width="149.684" height="43.7288" fill="white" transform="translate(0.158691 0.0854492)"/>
</clipPath>
<clipPath id="clip2_81_159">
<rect width="149.684" height="43.7288" fill="white" transform="translate(0.158691 0.0854492)"/>
</clipPath>
<clipPath id="clip3_81_159">
<rect width="149.684" height="43.7288" fill="white" transform="translate(0.158691 0.0854492)"/>
</clipPath>
<clipPath id="clip4_81_159">
<rect width="111.285" height="31.6417" fill="white" transform="translate(38.5576 6.12891)"/>
</clipPath>
<clipPath id="clip5_81_159">
<rect width="111.285" height="31.6417" fill="white" transform="translate(38.5576 6.12891)"/>
</clipPath>
<clipPath id="clip6_81_159">
<rect width="111.285" height="31.6417" fill="white" transform="translate(38.5576 6.12891)"/>
</clipPath>
<clipPath id="clip7_81_159">
<rect width="111.285" height="31.6417" fill="white" transform="translate(38.5576 6.12891)"/>
</clipPath>
<clipPath id="clip8_81_159">
<rect width="32.7966" height="43.7288" fill="white" transform="translate(0.158691 0.0854492)"/>
</clipPath>
<clipPath id="clip9_81_159">
<rect width="32.7966" height="43.7288" fill="white" transform="translate(0.158691 0.0854492)"/>
</clipPath>
</defs>
</svg>
